<svg width="240" height="240" viewBox="0 0 240 240" fill="none" xmlns="http://www.w3.org/2000/svg">
<path d="M0 12C0 5.37259 5.37258 0 12 0H228C234.627 0 240 5.37258 240 12V228C240 234.627 234.627 240 228 240H12C5.37259 240 0 234.627 0 228V12Z" fill="black"/>
<path d="M120.002 231.848L19.174 175.923V64.0751L120.002 8.15253L220.826 64.0751V175.923L120.002 231.848ZM29.4046 170.249L120 220.498L210.595 170.249V69.7512L120.002 19.5023L29.4046 69.7512V170.249Z" fill="url(#paint0_linear_5_110)"/>
<path d="M131.558 185.085L130.14 174.626L140.677 179.215L131.558 185.085Z" fill="url(#paint1_linear_5_110)"/>
<path d="M153.632 173.019C153.249 173.019 152.861 172.946 152.489 172.787L153.613 170.287L151.054 169.175L191.285 83.869C190.975 82.8815 188.167 79.8594 182.24 77.2791C176.399 74.738 172.22 74.6644 171.168 75.0741L130.916 160.408L128.348 159.292L127.095 161.734C125.734 161.078 125.13 159.497 125.756 158.164L165.957 72.9243C166 72.8115 166.046 72.701 166.098 72.5882C166.177 72.4317 166.252 72.2913 166.338 72.1555C166.352 72.1348 166.367 72.1118 166.381 72.0934V72.0911C169.048 67.9365 177.443 69.2139 184.581 72.3189C191.421 75.2997 197.71 80.223 196.908 84.7344C196.884 85.0474 196.805 85.3582 196.663 85.6551L156.215 171.417C155.743 172.423 154.708 173.019 153.632 173.019Z" fill="url(#paint2_linear_5_110)"/>
<path d="M131.264 188.496C130.876 188.496 130.483 188.418 130.109 188.257C129.186 187.861 128.556 187.023 128.449 186.054L125.612 159.909C125.494 158.85 126.033 157.826 126.987 157.282L132.134 154.366C132.855 153.956 133.724 153.876 134.515 154.143C135.301 154.41 135.929 154.999 136.223 155.752L137.833 159.869L141.988 158.353C142.719 158.086 143.529 158.12 144.226 158.445C144.928 158.769 145.462 159.356 145.695 160.067L146.972 163.907L150.997 162.438C151.763 162.162 152.616 162.213 153.342 162.583C154.064 162.954 154.583 163.607 154.766 164.374L156.067 169.843C156.318 170.909 155.889 172.013 154.967 172.656L132.927 187.973C132.433 188.321 131.853 188.496 131.264 188.496ZM131.436 161.082L133.576 180.808L150.122 169.307L149.964 168.639L146.188 170.018C145.462 170.28 144.652 170.25 143.95 169.923C143.248 169.597 142.719 169.012 142.482 168.301L141.209 164.464L137.189 165.93C136.487 166.188 135.706 166.167 135.018 165.868C134.331 165.569 133.796 165.021 133.53 164.344L132.107 160.705L131.436 161.082Z" fill="url(#paint3_linear_5_110)"/>
<path d="M140.088 181.786L128.559 176.771L130.892 171.811L142.424 176.831L140.088 181.786Z" fill="url(#paint4_linear_5_110)"/>
<path d="M129.5 188.391H46.2217C43.718 188.391 41.6862 186.441 41.6862 184.036C41.6862 181.631 43.718 179.681 46.2217 179.681H129.5C132.004 179.681 134.035 181.631 134.035 184.036C134.035 186.441 132.004 188.391 129.5 188.391Z" fill="url(#paint5_linear_5_110)"/>
<defs>
<linearGradient id="paint0_linear_5_110" x1="19.174" y1="8.15253" x2="220.826" y2="8.15253" gradientUnits="userSpaceOnUse">
<stop stop-color="#8F5E25"/>
<stop offset="0.5" stop-color="#FBF4A1"/>
<stop offset="1" stop-color="#8F5E25"/>
</linearGradient>
<linearGradient id="paint1_linear_5_110" x1="17.6656" y1="173.267" x2="218.637" y2="170.619" gradientUnits="userSpaceOnUse">
<stop stop-color="#8F5E25"/>
<stop offset="0.5" stop-color="#FBF4A1"/>
<stop offset="1" stop-color="#8F5E25"/>
</linearGradient>
<linearGradient id="paint2_linear_5_110" x1="18.1656" y1="70.5966" x2="220.659" y2="68.2978" gradientUnits="userSpaceOnUse">
<stop stop-color="#8F5E25"/>
<stop offset="0.5" stop-color="#FBF4A1"/>
<stop offset="1" stop-color="#8F5E25"/>
</linearGradient>
<linearGradient id="paint3_linear_5_110" x1="19.1656" y1="155.767" x2="220.649" y2="153.684" gradientUnits="userSpaceOnUse">
<stop stop-color="#8F5E25"/>
<stop offset="0.5" stop-color="#FBF4A1"/>
<stop offset="1" stop-color="#8F5E25"/>
</linearGradient>
<linearGradient id="paint4_linear_5_110" x1="18.1656" y1="172.267" x2="219.512" y2="164.023" gradientUnits="userSpaceOnUse">
<stop stop-color="#8F5E25"/>
<stop offset="0.5" stop-color="#FBF4A1"/>
<stop offset="1" stop-color="#8F5E25"/>
</linearGradient>
<linearGradient id="paint5_linear_5_110" x1="20.0085" y1="179.454" x2="218.508" y2="179.454" gradientUnits="userSpaceOnUse">
<stop stop-color="#8F5E25"/>
<stop offset="0.5" stop-color="#FBF4A1"/>
<stop offset="1" stop-color="#8F5E25"/>
</linearGradient>
</defs>
</svg>
