<svg width="322.01093749999995" height="322.01093749999995" viewBox="0 0 278.75 278.75">
  <defs id="SvgjsDefs2517">
    <linearGradient id="SvgjsLinearGradient2526">
      <stop id="SvgjsStop2527" stop-color="#8f5e25" offset="0"></stop>
      <stop id="SvgjsStop2528" stop-color="#fbf4a1" offset="0.5"></stop>
      <stop id="SvgjsStop2529" stop-color="#8f5e25" offset="1"></stop>
    </linearGradient>
    <linearGradient id="SvgjsLinearGradient2530">
      <stop id="SvgjsStop2531" stop-color="#8f5e25" offset="0"></stop>
      <stop id="SvgjsStop2532" stop-color="#fbf4a1" offset="0.5"></stop>
      <stop id="SvgjsStop2533" stop-color="#8f5e25" offset="1"></stop>
    </linearGradient>
    <linearGradient id="SvgjsLinearGradient2534">
      <stop id="SvgjsStop2535" stop-color="#8f5e25" offset="0"></stop>
      <stop id="SvgjsStop2536" stop-color="#fbf4a1" offset="0.5"></stop>
      <stop id="SvgjsStop2537" stop-color="#8f5e25" offset="1"></stop>
    </linearGradient>
  </defs>
  <g id="SvgjsG2518" featurekey="rootContainer" transform="matrix(2.7875,0,0,2.7875,0,0)" fill="#000000">
    <path xmlns="http://www.w3.org/2000/svg" d="M0 0h100v100H0z">
    </path>
  </g>
  <g id="SvgjsG2519" featurekey="symbolFeature-0" transform="matrix(1.2506909850134256,0,0,1.2506909850134256,76.99447211989259,50.706785472593296)" fill="url(#SvgjsLinearGradient2526)">
    <g xmlns="http://www.w3.org/2000/svg">
      <g>
        <path d="M50.083,98.22L8,73.923V25.33L50.083,1.034L92.164,25.33v48.593L50.083,98.22L50.083,98.22z M12.27,71.458l37.812,21.831    l37.812-21.831V27.796L50.083,5.965L12.27,27.796V71.458L12.27,71.458z"></path>
      </g>
      <g>
        <g>
          <g>
            <polygon points="55.258,76.464 54.666,71.92 59.064,73.914     "></polygon>
          </g>
          <g>
            <path d="M64.471,71.222c-0.16,0-0.322-0.032-0.477-0.101l0.469-1.086l-1.068-0.483l16.791-37.062      c-0.129-0.429-1.301-1.742-3.775-2.863c-2.438-1.104-4.182-1.136-4.621-0.958L54.99,65.743l-1.072-0.485l-0.523,1.061      c-0.568-0.285-0.82-0.972-0.559-1.551l16.779-37.033c0.018-0.049,0.037-0.097,0.059-0.146c0.033-0.068,0.064-0.129,0.1-0.188      c0.006-0.009,0.012-0.019,0.018-0.027v-0.001c1.113-1.805,4.617-1.25,7.596,0.099c2.855,1.295,5.48,3.434,5.145,5.394      c-0.01,0.136-0.043,0.271-0.102,0.4L65.549,70.526C65.352,70.963,64.92,71.222,64.471,71.222L64.471,71.222z"></path>
          </g>
          <g>
            <path d="M55.135,77.946c-0.162,0-0.326-0.034-0.482-0.104c-0.385-0.172-0.648-0.536-0.693-0.957l-1.184-11.359      c-0.049-0.46,0.176-0.905,0.574-1.141l2.148-1.267c0.301-0.178,0.664-0.213,0.994-0.097c0.328,0.116,0.59,0.372,0.713,0.699      l0.672,1.789l1.734-0.659c0.305-0.116,0.643-0.101,0.934,0.04c0.293,0.141,0.516,0.396,0.613,0.705l0.533,1.668l1.68-0.638      c0.32-0.12,0.676-0.098,0.979,0.063c0.301,0.161,0.518,0.445,0.594,0.778l0.543,2.376c0.105,0.463-0.074,0.943-0.459,1.222      l-9.199,6.655C55.623,77.87,55.381,77.946,55.135,77.946L55.135,77.946z M55.207,66.036l0.893,8.57l6.906-4.997l-0.066-0.29      l-1.576,0.599c-0.303,0.114-0.641,0.101-0.934-0.041s-0.514-0.396-0.613-0.705l-0.531-1.667l-1.678,0.637      c-0.293,0.112-0.619,0.103-0.906-0.027s-0.51-0.368-0.621-0.662l-0.594-1.581L55.207,66.036L55.207,66.036z"></path>
          </g>
          <g>
            <polygon points="58.818,75.031 54.006,72.852 54.98,70.697 59.793,72.878 58.818,75.031     "></polygon>
          </g>
        </g>
        <g>
          <path d="M54.047,79.34H19.289c-1.045,0-1.893-0.847-1.893-1.892s0.848-1.892,1.893-1.892h34.758c1.045,0,1.893,0.847,1.893,1.892     S55.092,79.34,54.047,79.34L54.047,79.34z"></path>
        </g>
      </g>
    </g>
  </g>
  <g id="SvgjsG2520" featurekey="nameFeature-0" transform="matrix(0.690632683019874,0,0,0.690632683019874,37.28695463402348,190.13595329250828)" fill="url(#SvgjsLinearGradient2530)">
    <path d="M35.996 40 l-5.8398 0 l-1.8555 -21.27 l-7.1484 21.27 l-3.7891 0 l-7.1484 -21.27 l-1.875 21.27 l-5.8594 0 l2.3633 -28.223 l8.3594 0 l6.0156 17.715 l6.0938 -17.715 l8.3594 0 z M64.86321875 40 l-2.0508 -5.8203 l-11.855 0 l-2.0508 5.8203 l-5.9961 0 l10.391 -28.223 l7.168 0 l10.391 28.223 l-5.9961 0 z M52.676218750000004 29.277 l8.418 0 l-4.1992 -11.973 z M75.85937875 40 l10.996 -14.727 l-10.684 -13.496 l7.1289 0 l7.0313 9.2578 l7.0313 -9.2578 l7.1289 0 l-10.684 13.496 l10.996 14.727 l-7.4609 0 l-7.0117 -9.9805 l-7.0117 9.9805 l-7.4609 0 z M129.57075 40 l-8.7695 -11.992 l-2.0703 0 l0 11.992 l-5.8594 0 l0 -28.223 l5.8594 0 l0 11.094 l1.9922 0 l8.8477 -11.094 l7.1484 0 l-10.938 13.496 l11.27 14.727 l-7.4805 0 z M161.4653125 16.934 l-10.469 0 l0 6.4063 l9.2773 0 l0 5.0977 l-9.2773 0 l0 6.3867 l10.469 0 l0 5.1758 l-16.367 0 l0 -28.223 l16.367 0 l0 5.1563 z M203.6913125 40 l-5.8398 0 l-1.8555 -21.27 l-7.1484 21.27 l-3.7891 0 l-7.1484 -21.27 l-1.875 21.27 l-5.8594 0 l2.3633 -28.223 l8.3594 0 l6.0156 17.715 l6.0938 -17.715 l8.3594 0 z M230.37153125 40 l-8.7695 -11.992 l-2.0703 0 l0 11.992 l-5.8594 0 l0 -28.223 l5.8594 0 l0 11.094 l1.9922 0 l8.8477 -11.094 l7.1484 0 l-10.938 13.496 l11.27 14.727 l-7.4805 0 z M262.26609375 16.934 l-10.469 0 l0 6.4063 l9.2773 0 l0 5.0977 l-9.2773 0 l0 6.3867 l10.469 0 l0 5.1758 l-16.367 0 l0 -28.223 l16.367 0 l0 5.1563 z M281.52309375 40.39063 c-6.0547 0 -10.781 -2.9102 -11.641 -8.2031 l6.0547 -1.3867 c0.39063 3.1641 2.7148 4.8047 5.8203 4.8047 c2.3828 0 4.2773 -1.0547 4.2578 -3.4375 c-0.019531 -2.6563 -3.1445 -3.4961 -6.582 -4.5508 c-4.1406 -1.2891 -8.5742 -2.8125 -8.5742 -8.0078 c0 -5.2539 4.2969 -8.2227 9.9609 -8.2227 c4.9609 0 9.9609 2.0117 11.094 7.4219 l-5.6641 1.4063 c-0.52734 -2.8125 -2.4219 -4.043 -5.0781 -4.043 c-2.3633 0 -4.375 0.97656 -4.375 3.3008 c0 2.168 2.7734 2.8906 5.9766 3.8477 c4.2578 1.2891 9.2969 2.9297 9.2969 8.5547 c0 5.9961 -5.0195 8.5156 -10.547 8.5156 z"></path>
  </g>
  <g id="SvgjsG2521" featurekey="nameFeature-1" transform="matrix(0.8037701253744522,0,0,0.8037701253744522,36.064068522090004,218.84776846352673)" fill="url(#SvgjsLinearGradient2534)">
    <path d="M15.391 11.777000000000001 c5.5273 0 8.9648 4.1016 8.9648 9.1211 c0 5.1367 -3.4375 8.9844 -8.9648 8.9844 l-5.8789 0 l0 10.117 l-5.8594 0 l0 -28.223 l11.738 0 z M14.414 24.98 c2.9297 0 4.2969 -1.6211 4.2969 -4.1602 c0 -2.4414 -1.3672 -4.1406 -4.2969 -4.1406 l-4.9023 0 l0 8.3008 l4.9023 0 z M45.62465625 40.39063 c-8.3008 0 -14.434 -5.6641 -14.434 -14.512 c0 -8.8672 6.1328 -14.492 14.434 -14.492 c8.2813 0 14.414 5.625 14.414 14.492 c0 8.8477 -6.1328 14.512 -14.414 14.512 z M45.62465625 35.0195 c4.8633 0 8.5938 -3.418 8.5938 -9.1406 c0 -5.7031 -3.7305 -9.1016 -8.5938 -9.1016 s-8.5938 3.3984 -8.5938 9.1016 c0 5.7227 3.7305 9.1406 8.5938 9.1406 z M84.18 40 l-7.3438 -12.422 l-1.6992 0 l0 12.422 l-5.8594 0 l0 -28.223 l10.234 0 c6.3867 0 9.082 3.7695 9.082 8.4375 c0 3.7891 -2.1484 6.25 -5.9766 7.0703 l8.4961 12.715 l-6.9336 0 z M75.1367 16.641 l0 6.7383 l3.457 0 c3.125 0 4.3945 -1.3281 4.3945 -3.3594 c0 -2.0117 -1.2695 -3.3789 -4.3945 -3.3789 l-3.457 0 z M115.62546875 11.777000000000001 l0 5.1563 l-6.6992 0 l0 23.066 l-5.8008 0 l0 -23.066 l-6.7383 0 l0 -5.1563 l19.238 0 z M140.54690625 16.934 l-10.742 0 l0 6.4063 l9.2773 0 l0 5.0977 l-9.2773 0 l0 11.563 l-5.8984 0 l0 -28.223 l16.641 0 l0 5.1563 z M161.8941875 40.39063 c-8.3008 0 -14.434 -5.6641 -14.434 -14.512 c0 -8.8672 6.1328 -14.492 14.434 -14.492 c8.2813 0 14.414 5.625 14.414 14.492 c0 8.8477 -6.1328 14.512 -14.414 14.512 z M161.8941875 35.0195 c4.8633 0 8.5938 -3.418 8.5938 -9.1406 c0 -5.7031 -3.7305 -9.1016 -8.5938 -9.1016 s-8.5938 3.3984 -8.5938 9.1016 c0 5.7227 3.7305 9.1406 8.5938 9.1406 z M191.40623125 34.8242 l8.8477 0 l0 5.1758 l-14.707 0 l0 -28.223 l5.8594 0 l0 23.047 z M208.574175 40 l0 -28.223 l5.8594 0 l0 28.223 l-5.8594 0 z M238.0660625 40.39063 c-8.3008 0 -14.434 -5.6641 -14.434 -14.512 c0 -8.8672 6.1328 -14.492 14.434 -14.492 c8.2813 0 14.414 5.625 14.414 14.492 c0 8.8477 -6.1328 14.512 -14.414 14.512 z M238.0660625 35.0195 c4.8633 0 8.5938 -3.418 8.5938 -9.1406 c0 -5.7031 -3.7305 -9.1016 -8.5938 -9.1016 s-8.5938 3.3984 -8.5938 9.1016 c0 5.7227 3.7305 9.1406 8.5938 9.1406 z"></path>
  </g>
</svg>