<svg width="534" height="513" viewBox="0 0 534 513" fill="none" xmlns="http://www.w3.org/2000/svg">
<g clip-path="url(#clip0_4_23)">
<path d="M0 0H534V513H0V0Z" fill="white"/>
<path d="M267.494 319.394L166.665 263.469V151.621L267.494 95.6987L368.318 151.621V263.469L267.494 319.394ZM176.896 257.795L267.492 308.044L358.087 257.795V157.297L267.494 107.048L176.896 157.297V257.795Z" fill="url(#paint0_linear_4_23)"/>
<path d="M279.05 272.631L277.632 262.172L288.169 266.762L279.05 272.631Z" fill="url(#paint1_linear_4_23)"/>
<path d="M301.124 260.565C300.74 260.565 300.352 260.492 299.981 260.333L301.105 257.833L298.546 256.721L338.776 171.415C338.467 170.428 335.659 167.406 329.731 164.825C323.89 162.284 319.712 162.211 318.66 162.62L278.408 247.954L275.839 246.838L274.586 249.28C273.225 248.624 272.622 247.043 273.247 245.71L313.449 160.47C313.492 160.358 313.537 160.247 313.59 160.134C313.669 159.978 313.743 159.837 313.83 159.702C313.844 159.681 313.858 159.658 313.873 159.64V159.637C316.539 155.483 324.935 156.76 332.072 159.865C338.913 162.846 345.202 167.769 344.399 172.281C344.375 172.594 344.296 172.904 344.155 173.201L303.707 258.963C303.235 259.969 302.2 260.565 301.124 260.565Z" fill="url(#paint2_linear_4_23)"/>
<path d="M278.755 276.042C278.367 276.042 277.974 275.964 277.6 275.803C276.678 275.407 276.048 274.569 275.94 273.6L273.103 247.455C272.986 246.396 273.525 245.372 274.479 244.828L279.625 241.912C280.346 241.502 281.216 241.422 282.007 241.689C282.792 241.956 283.42 242.545 283.715 243.298L285.325 247.416L289.48 245.899C290.21 245.632 291.02 245.666 291.717 245.991C292.419 246.315 292.954 246.902 293.186 247.614L294.463 251.453L298.488 249.984C299.255 249.708 300.108 249.759 300.834 250.129C301.555 250.5 302.075 251.154 302.257 251.92L303.558 257.389C303.81 258.455 303.381 259.559 302.458 260.202L280.418 275.52C279.925 275.867 279.345 276.042 278.755 276.042ZM278.928 248.629L281.067 268.354L297.614 256.853L297.456 256.185L293.68 257.564C292.954 257.826 292.144 257.796 291.442 257.47C290.74 257.143 290.21 256.558 289.973 255.847L288.701 252.01L284.68 253.476C283.978 253.734 283.197 253.713 282.51 253.414C281.822 253.115 281.288 252.567 281.022 251.89L279.599 248.251L278.928 248.629Z" fill="url(#paint3_linear_4_23)"/>
<path d="M287.58 269.333L276.05 264.317L278.384 259.357L289.916 264.377L287.58 269.333Z" fill="url(#paint4_linear_4_23)"/>
<path d="M276.991 275.937H193.713C191.21 275.937 189.178 273.988 189.178 271.582C189.178 269.177 191.21 267.227 193.713 267.227H276.991C279.495 267.227 281.527 269.177 281.527 271.582C281.527 273.988 279.495 275.937 276.991 275.937Z" fill="url(#paint5_linear_4_23)"/>
<path d="M72.016 394V349.2H78.864L98.448 381.904H94.864L114.128 349.2H120.976L121.04 394H113.168L113.104 361.552H114.768L98.384 388.88H94.672L78.032 361.552H79.952V394H72.016ZM154.389 394V387.088L153.941 385.616V373.52C153.941 371.173 153.237 369.36 151.829 368.08C150.421 366.757 148.288 366.096 145.429 366.096C143.509 366.096 141.61 366.395 139.733 366.992C137.898 367.589 136.341 368.421 135.061 369.488L131.925 363.664C133.76 362.256 135.936 361.211 138.453 360.528C141.013 359.803 143.658 359.44 146.389 359.44C151.338 359.44 155.157 360.635 157.845 363.024C160.576 365.371 161.941 369.019 161.941 373.968V394H154.389ZM143.637 394.448C141.077 394.448 138.837 394.021 136.917 393.168C134.997 392.272 133.504 391.056 132.437 389.52C131.413 387.941 130.901 386.171 130.901 384.208C130.901 382.288 131.349 380.56 132.245 379.024C133.184 377.488 134.698 376.272 136.789 375.376C138.88 374.48 141.653 374.032 145.109 374.032H155.029V379.344H145.685C142.954 379.344 141.12 379.792 140.181 380.688C139.242 381.541 138.773 382.608 138.773 383.888C138.773 385.339 139.349 386.491 140.501 387.344C141.653 388.197 143.253 388.624 145.301 388.624C147.264 388.624 149.013 388.176 150.549 387.28C152.128 386.384 153.258 385.061 153.941 383.312L155.285 388.112C154.517 390.117 153.13 391.675 151.125 392.784C149.162 393.893 146.666 394.448 143.637 394.448ZM168.496 394L183.536 374.416L183.408 378.704L169.072 359.824H177.968L188.016 373.264H184.624L194.736 359.824H203.376L188.912 378.704L188.976 374.416L203.952 394H194.928L184.368 379.728L187.696 380.176L177.328 394H168.496ZM219.008 383.44L218.56 373.584L242.048 349.2H251.392L231.872 369.936L227.264 374.992L219.008 383.44ZM211.584 394V349.2H219.904V394H211.584ZM242.816 394L225.664 373.584L231.168 367.504L252.544 394H242.816ZM272.964 394.448C269.167 394.448 265.839 393.701 262.98 392.208C260.164 390.672 257.967 388.581 256.388 385.936C254.852 383.291 254.084 380.283 254.084 376.912C254.084 373.499 254.831 370.491 256.324 367.888C257.86 365.243 259.951 363.173 262.596 361.68C265.284 360.187 268.335 359.44 271.748 359.44C275.076 359.44 278.042 360.165 280.644 361.616C283.247 363.067 285.295 365.115 286.788 367.76C288.282 370.405 289.028 373.52 289.028 377.104C289.028 377.445 289.007 377.829 288.964 378.256C288.964 378.683 288.943 379.088 288.9 379.472H260.42V374.16H284.676L281.54 375.824C281.583 373.861 281.178 372.133 280.324 370.64C279.471 369.147 278.298 367.973 276.804 367.12C275.354 366.267 273.668 365.84 271.748 365.84C269.786 365.84 268.058 366.267 266.564 367.12C265.114 367.973 263.962 369.168 263.108 370.704C262.298 372.197 261.892 373.968 261.892 376.016V377.296C261.892 379.344 262.362 381.157 263.3 382.736C264.239 384.315 265.562 385.531 267.268 386.384C268.975 387.237 270.938 387.664 273.156 387.664C275.076 387.664 276.804 387.365 278.34 386.768C279.876 386.171 281.242 385.232 282.436 383.952L286.724 388.88C285.188 390.672 283.247 392.059 280.9 393.04C278.596 393.979 275.951 394.448 272.964 394.448ZM340.809 359.44C343.54 359.44 345.95 359.973 348.041 361.04C350.174 362.107 351.838 363.749 353.033 365.968C354.228 368.144 354.825 370.96 354.825 374.416V394H346.825V375.44C346.825 372.411 346.164 370.149 344.841 368.656C343.518 367.163 341.62 366.416 339.145 366.416C337.396 366.416 335.838 366.8 334.473 367.568C333.15 368.336 332.105 369.467 331.337 370.96C330.612 372.453 330.249 374.352 330.249 376.656V394H322.249V375.44C322.249 372.411 321.588 370.149 320.265 368.656C318.942 367.163 317.044 366.416 314.569 366.416C312.82 366.416 311.262 366.8 309.897 367.568C308.574 368.336 307.529 369.467 306.761 370.96C306.036 372.453 305.673 374.352 305.673 376.656V394H297.673V359.824H305.289V368.912L303.945 366.224C305.097 364.005 306.761 362.32 308.937 361.168C311.156 360.016 313.673 359.44 316.489 359.44C319.689 359.44 322.462 360.229 324.809 361.808C327.198 363.387 328.777 365.776 329.545 368.976L326.409 367.888C327.518 365.328 329.353 363.28 331.913 361.744C334.473 360.208 337.438 359.44 340.809 359.44ZM372.536 386.384L372.728 376.336L390.584 359.824H400.184L385.016 375.056L380.792 378.576L372.536 386.384ZM366.008 394V346.512H374.008V394H366.008ZM391.8 394L379.32 378.576L384.376 372.176L401.528 394H391.8ZM422.345 394.448C418.547 394.448 415.219 393.701 412.361 392.208C409.545 390.672 407.347 388.581 405.769 385.936C404.233 383.291 403.465 380.283 403.465 376.912C403.465 373.499 404.211 370.491 405.705 367.888C407.241 365.243 409.331 363.173 411.977 361.68C414.665 360.187 417.715 359.44 421.129 359.44C424.457 359.44 427.422 360.165 430.025 361.616C432.627 363.067 434.675 365.115 436.169 367.76C437.662 370.405 438.409 373.52 438.409 377.104C438.409 377.445 438.387 377.829 438.345 378.256C438.345 378.683 438.323 379.088 438.281 379.472H409.801V374.16H434.057L430.921 375.824C430.963 373.861 430.558 372.133 429.705 370.64C428.851 369.147 427.678 367.973 426.185 367.12C424.734 366.267 423.049 365.84 421.129 365.84C419.166 365.84 417.438 366.267 415.945 367.12C414.494 367.973 413.342 369.168 412.489 370.704C411.678 372.197 411.273 373.968 411.273 376.016V377.296C411.273 379.344 411.742 381.157 412.681 382.736C413.619 384.315 414.942 385.531 416.649 386.384C418.355 387.237 420.318 387.664 422.537 387.664C424.457 387.664 426.185 387.365 427.721 386.768C429.257 386.171 430.622 385.232 431.817 383.952L436.105 388.88C434.569 390.672 432.627 392.059 430.281 393.04C427.977 393.979 425.331 394.448 422.345 394.448ZM457.613 394.448C454.754 394.448 452.002 394.085 449.357 393.36C446.754 392.592 444.685 391.675 443.149 390.608L446.221 384.528C447.757 385.509 449.592 386.32 451.725 386.96C453.858 387.6 455.992 387.92 458.125 387.92C460.642 387.92 462.456 387.579 463.565 386.896C464.717 386.213 465.293 385.296 465.293 384.144C465.293 383.205 464.909 382.501 464.141 382.032C463.373 381.52 462.37 381.136 461.133 380.88C459.896 380.624 458.509 380.389 456.973 380.176C455.48 379.963 453.965 379.685 452.429 379.344C450.936 378.96 449.57 378.427 448.333 377.744C447.096 377.019 446.093 376.059 445.325 374.864C444.557 373.669 444.173 372.091 444.173 370.128C444.173 367.952 444.792 366.075 446.029 364.496C447.266 362.875 448.994 361.637 451.213 360.784C453.474 359.888 456.141 359.44 459.213 359.44C461.517 359.44 463.842 359.696 466.189 360.208C468.536 360.72 470.477 361.445 472.013 362.384L468.941 368.464C467.32 367.483 465.677 366.821 464.013 366.48C462.392 366.096 460.77 365.904 459.149 365.904C456.717 365.904 454.904 366.267 453.709 366.992C452.557 367.717 451.981 368.635 451.981 369.744C451.981 370.768 452.365 371.536 453.133 372.048C453.901 372.56 454.904 372.965 456.141 373.264C457.378 373.563 458.744 373.819 460.237 374.032C461.773 374.203 463.288 374.48 464.781 374.864C466.274 375.248 467.64 375.781 468.877 376.464C470.157 377.104 471.181 378.021 471.949 379.216C472.717 380.411 473.101 381.968 473.101 383.888C473.101 386.021 472.461 387.877 471.181 389.456C469.944 391.035 468.173 392.272 465.869 393.168C463.565 394.021 460.813 394.448 457.613 394.448Z" fill="url(#paint6_linear_4_23)"/>
<path d="M72.016 456V411.2H90.448C94.416 411.2 97.808 411.84 100.624 413.12C103.483 414.4 105.68 416.235 107.216 418.624C108.752 421.013 109.52 423.851 109.52 427.136C109.52 430.421 108.752 433.259 107.216 435.648C105.68 438.037 103.483 439.872 100.624 441.152C97.808 442.432 94.416 443.072 90.448 443.072H76.624L80.336 439.168V456H72.016ZM80.336 440.064L76.624 436.032H90.064C93.7333 436.032 96.4853 435.264 98.32 433.728C100.197 432.149 101.136 429.952 101.136 427.136C101.136 424.277 100.197 422.08 98.32 420.544C96.4853 419.008 93.7333 418.24 90.064 418.24H76.624L80.336 414.144V440.064ZM142.006 456.64C138.507 456.64 135.286 456.064 132.342 454.912C129.398 453.76 126.838 452.16 124.662 450.112C122.486 448.021 120.8 445.589 119.606 442.816C118.411 440 117.814 436.928 117.814 433.6C117.814 430.272 118.411 427.221 119.606 424.448C120.8 421.632 122.486 419.2 124.662 417.152C126.838 415.061 129.398 413.44 132.342 412.288C135.286 411.136 138.486 410.56 141.942 410.56C145.44 410.56 148.64 411.136 151.542 412.288C154.486 413.44 157.046 415.061 159.222 417.152C161.398 419.2 163.083 421.632 164.278 424.448C165.472 427.221 166.07 430.272 166.07 433.6C166.07 436.928 165.472 440 164.278 442.816C163.083 445.632 161.398 448.064 159.222 450.112C157.046 452.16 154.486 453.76 151.542 454.912C148.64 456.064 145.462 456.64 142.006 456.64ZM141.942 449.344C144.203 449.344 146.294 448.96 148.214 448.192C150.134 447.424 151.798 446.336 153.206 444.928C154.614 443.477 155.702 441.813 156.47 439.936C157.28 438.016 157.686 435.904 157.686 433.6C157.686 431.296 157.28 429.205 156.47 427.328C155.702 425.408 154.614 423.744 153.206 422.336C151.798 420.885 150.134 419.776 148.214 419.008C146.294 418.24 144.203 417.856 141.942 417.856C139.68 417.856 137.59 418.24 135.67 419.008C133.792 419.776 132.128 420.885 130.678 422.336C129.27 423.744 128.16 425.408 127.35 427.328C126.582 429.205 126.198 431.296 126.198 433.6C126.198 435.861 126.582 437.952 127.35 439.872C128.16 441.792 129.27 443.477 130.678 444.928C132.086 446.336 133.75 447.424 135.67 448.192C137.59 448.96 139.68 449.344 141.942 449.344ZM177.449 456V411.2H195.881C199.849 411.2 203.241 411.84 206.057 413.12C208.915 414.4 211.113 416.235 212.649 418.624C214.185 421.013 214.953 423.851 214.953 427.136C214.953 430.421 214.185 433.259 212.649 435.648C211.113 437.995 208.915 439.808 206.057 441.088C203.241 442.325 199.849 442.944 195.881 442.944H182.057L185.769 439.168V456H177.449ZM206.761 456L195.433 439.744H204.329L215.721 456H206.761ZM185.769 440.064L182.057 436.096H195.497C199.166 436.096 201.918 435.307 203.753 433.728C205.63 432.149 206.569 429.952 206.569 427.136C206.569 424.277 205.63 422.08 203.753 420.544C201.918 419.008 199.166 418.24 195.497 418.24H182.057L185.769 414.144V440.064ZM235.284 456V418.24H220.436V411.2H258.452V418.24H243.604V456H235.284ZM274.872 431.808H297.208V438.848H274.872V431.808ZM275.576 456H267.256V411.2H299.96V418.176H275.576V456ZM331.058 456.64C327.559 456.64 324.338 456.064 321.394 454.912C318.45 453.76 315.89 452.16 313.714 450.112C311.538 448.021 309.853 445.589 308.658 442.816C307.463 440 306.866 436.928 306.866 433.6C306.866 430.272 307.463 427.221 308.658 424.448C309.853 421.632 311.538 419.2 313.714 417.152C315.89 415.061 318.45 413.44 321.394 412.288C324.338 411.136 327.538 410.56 330.994 410.56C334.493 410.56 337.693 411.136 340.594 412.288C343.538 413.44 346.098 415.061 348.274 417.152C350.45 419.2 352.135 421.632 353.33 424.448C354.525 427.221 355.122 430.272 355.122 433.6C355.122 436.928 354.525 440 353.33 442.816C352.135 445.632 350.45 448.064 348.274 450.112C346.098 452.16 343.538 453.76 340.594 454.912C337.693 456.064 334.514 456.64 331.058 456.64ZM330.994 449.344C333.255 449.344 335.346 448.96 337.266 448.192C339.186 447.424 340.85 446.336 342.258 444.928C343.666 443.477 344.754 441.813 345.522 439.936C346.333 438.016 346.738 435.904 346.738 433.6C346.738 431.296 346.333 429.205 345.522 427.328C344.754 425.408 343.666 423.744 342.258 422.336C340.85 420.885 339.186 419.776 337.266 419.008C335.346 418.24 333.255 417.856 330.994 417.856C328.733 417.856 326.642 418.24 324.722 419.008C322.845 419.776 321.181 420.885 319.73 422.336C318.322 423.744 317.213 425.408 316.402 427.328C315.634 429.205 315.25 431.296 315.25 433.6C315.25 435.861 315.634 437.952 316.402 439.872C317.213 441.792 318.322 443.477 319.73 444.928C321.138 446.336 322.802 447.424 324.722 448.192C326.642 448.96 328.733 449.344 330.994 449.344ZM366.501 456V411.2H374.821V448.96H398.245V456H366.501ZM407.374 456V411.2H415.694V456H407.374ZM451.363 456.64C447.864 456.64 444.643 456.064 441.699 454.912C438.755 453.76 436.195 452.16 434.019 450.112C431.843 448.021 430.158 445.589 428.963 442.816C427.768 440 427.171 436.928 427.171 433.6C427.171 430.272 427.768 427.221 428.963 424.448C430.158 421.632 431.843 419.2 434.019 417.152C436.195 415.061 438.755 413.44 441.699 412.288C444.643 411.136 447.843 410.56 451.299 410.56C454.798 410.56 457.998 411.136 460.899 412.288C463.843 413.44 466.403 415.061 468.579 417.152C470.755 419.2 472.44 421.632 473.635 424.448C474.83 427.221 475.427 430.272 475.427 433.6C475.427 436.928 474.83 440 473.635 442.816C472.44 445.632 470.755 448.064 468.579 450.112C466.403 452.16 463.843 453.76 460.899 454.912C457.998 456.064 454.819 456.64 451.363 456.64ZM451.299 449.344C453.56 449.344 455.651 448.96 457.571 448.192C459.491 447.424 461.155 446.336 462.563 444.928C463.971 443.477 465.059 441.813 465.827 439.936C466.638 438.016 467.043 435.904 467.043 433.6C467.043 431.296 466.638 429.205 465.827 427.328C465.059 425.408 463.971 423.744 462.563 422.336C461.155 420.885 459.491 419.776 457.571 419.008C455.651 418.24 453.56 417.856 451.299 417.856C449.038 417.856 446.947 418.24 445.027 419.008C443.15 419.776 441.486 420.885 440.035 422.336C438.627 423.744 437.518 425.408 436.707 427.328C435.939 429.205 435.555 431.296 435.555 433.6C435.555 435.861 435.939 437.952 436.707 439.872C437.518 441.792 438.627 443.477 440.035 444.928C441.443 446.336 443.107 447.424 445.027 448.192C446.947 448.96 449.038 449.344 451.299 449.344Z" fill="url(#paint7_linear_4_23)"/>
</g>
<defs>
<linearGradient id="paint0_linear_4_23" x1="166.665" y1="95.6987" x2="368.318" y2="95.6987" gradientUnits="userSpaceOnUse">
<stop stop-color="#8F5E25"/>
<stop offset="0.5" stop-color="#FBF4A1"/>
<stop offset="1" stop-color="#8F5E25"/>
</linearGradient>
<linearGradient id="paint1_linear_4_23" x1="165.157" y1="260.814" x2="366.129" y2="258.166" gradientUnits="userSpaceOnUse">
<stop stop-color="#8F5E25"/>
<stop offset="0.5" stop-color="#FBF4A1"/>
<stop offset="1" stop-color="#8F5E25"/>
</linearGradient>
<linearGradient id="paint2_linear_4_23" x1="165.657" y1="158.143" x2="368.151" y2="155.844" gradientUnits="userSpaceOnUse">
<stop stop-color="#8F5E25"/>
<stop offset="0.5" stop-color="#FBF4A1"/>
<stop offset="1" stop-color="#8F5E25"/>
</linearGradient>
<linearGradient id="paint3_linear_4_23" x1="166.657" y1="243.314" x2="368.141" y2="241.23" gradientUnits="userSpaceOnUse">
<stop stop-color="#8F5E25"/>
<stop offset="0.5" stop-color="#FBF4A1"/>
<stop offset="1" stop-color="#8F5E25"/>
</linearGradient>
<linearGradient id="paint4_linear_4_23" x1="165.657" y1="259.814" x2="367.004" y2="251.569" gradientUnits="userSpaceOnUse">
<stop stop-color="#8F5E25"/>
<stop offset="0.5" stop-color="#FBF4A1"/>
<stop offset="1" stop-color="#8F5E25"/>
</linearGradient>
<linearGradient id="paint5_linear_4_23" x1="167.5" y1="267" x2="366" y2="267" gradientUnits="userSpaceOnUse">
<stop stop-color="#8F5E25"/>
<stop offset="0.5" stop-color="#FBF4A1"/>
<stop offset="1" stop-color="#8F5E25"/>
</linearGradient>
<linearGradient id="paint6_linear_4_23" x1="496.275" y1="332" x2="49.6676" y2="332" gradientUnits="userSpaceOnUse">
<stop stop-color="#8F5E25"/>
<stop offset="0.484375" stop-color="#FBF4A1"/>
<stop offset="1" stop-color="#8F5E25"/>
</linearGradient>
<linearGradient id="paint7_linear_4_23" x1="499.423" y1="394" x2="49.5481" y2="394" gradientUnits="userSpaceOnUse">
<stop stop-color="#8F5E25"/>
<stop offset="0.484375" stop-color="#FBF4A1"/>
<stop offset="1" stop-color="#8F5E25"/>
</linearGradient>
<clipPath id="clip0_4_23">
<rect width="534" height="513" rx="20" fill="white"/>
</clipPath>
</defs>
</svg>
