<svg width="202" height="224" viewBox="0 0 202 224" fill="none" xmlns="http://www.w3.org/2000/svg">
<path d="M101.002 223.848L0.17395 167.923V56.0751L101.002 0.152527L201.826 56.0751V167.923L101.002 223.848ZM10.4046 162.249L101 212.498L191.595 162.249V61.7512L101.002 11.5023L10.4046 61.7512V162.249Z" fill="url(#paint0_linear_5_71)"/>
<path d="M112.558 177.085L111.14 166.626L121.677 171.215L112.558 177.085Z" fill="url(#paint1_linear_5_71)"/>
<path d="M134.632 165.019C134.249 165.019 133.861 164.946 133.489 164.787L134.613 162.287L132.054 161.175L172.285 75.869C171.975 74.8815 169.167 71.8594 163.24 69.2791C157.399 66.738 153.22 66.6644 152.168 67.0741L111.916 152.408L109.348 151.292L108.095 153.734C106.734 153.078 106.13 151.497 106.756 150.164L146.957 64.9243C147 64.8115 147.046 64.701 147.098 64.5882C147.177 64.4317 147.252 64.2913 147.338 64.1555C147.352 64.1348 147.367 64.1118 147.381 64.0934V64.0911C150.048 59.9365 158.443 61.2139 165.581 64.3189C172.421 67.2997 178.71 72.223 177.908 76.7344C177.884 77.0474 177.805 77.3582 177.663 77.6551L137.215 163.417C136.743 164.423 135.708 165.019 134.632 165.019Z" fill="url(#paint2_linear_5_71)"/>
<path d="M112.264 180.496C111.876 180.496 111.483 180.418 111.109 180.257C110.186 179.861 109.556 179.023 109.449 178.054L106.612 151.909C106.494 150.85 107.033 149.826 107.987 149.282L113.134 146.366C113.855 145.956 114.724 145.876 115.515 146.143C116.301 146.41 116.929 146.999 117.223 147.752L118.833 151.869L122.988 150.353C123.719 150.086 124.529 150.12 125.226 150.445C125.928 150.769 126.462 151.356 126.695 152.067L127.972 155.907L131.997 154.438C132.763 154.162 133.616 154.213 134.342 154.583C135.064 154.954 135.583 155.607 135.766 156.374L137.067 161.843C137.318 162.909 136.889 164.013 135.967 164.656L113.927 179.973C113.433 180.321 112.853 180.496 112.264 180.496ZM112.436 153.082L114.576 172.808L131.122 161.307L130.964 160.639L127.188 162.018C126.462 162.28 125.652 162.25 124.95 161.923C124.248 161.597 123.719 161.012 123.482 160.301L122.209 156.464L118.189 157.93C117.487 158.188 116.706 158.167 116.018 157.868C115.331 157.569 114.796 157.021 114.53 156.344L113.107 152.705L112.436 153.082Z" fill="url(#paint3_linear_5_71)"/>
<path d="M121.088 173.786L109.559 168.771L111.892 163.811L123.424 168.831L121.088 173.786Z" fill="url(#paint4_linear_5_71)"/>
<path d="M110.5 180.391H27.2217C24.718 180.391 22.6862 178.441 22.6862 176.036C22.6862 173.631 24.718 171.681 27.2217 171.681H110.5C113.004 171.681 115.035 173.631 115.035 176.036C115.035 178.441 113.004 180.391 110.5 180.391Z" fill="url(#paint5_linear_5_71)"/>
<defs>
<linearGradient id="paint0_linear_5_71" x1="0.17395" y1="0.152527" x2="201.826" y2="0.152527" gradientUnits="userSpaceOnUse">
<stop stop-color="#8F5E25"/>
<stop offset="0.5" stop-color="#FBF4A1"/>
<stop offset="1" stop-color="#8F5E25"/>
</linearGradient>
<linearGradient id="paint1_linear_5_71" x1="-1.33444" y1="165.267" x2="199.637" y2="162.619" gradientUnits="userSpaceOnUse">
<stop stop-color="#8F5E25"/>
<stop offset="0.5" stop-color="#FBF4A1"/>
<stop offset="1" stop-color="#8F5E25"/>
</linearGradient>
<linearGradient id="paint2_linear_5_71" x1="-0.834435" y1="62.5966" x2="201.659" y2="60.2978" gradientUnits="userSpaceOnUse">
<stop stop-color="#8F5E25"/>
<stop offset="0.5" stop-color="#FBF4A1"/>
<stop offset="1" stop-color="#8F5E25"/>
</linearGradient>
<linearGradient id="paint3_linear_5_71" x1="0.165555" y1="147.767" x2="201.649" y2="145.684" gradientUnits="userSpaceOnUse">
<stop stop-color="#8F5E25"/>
<stop offset="0.5" stop-color="#FBF4A1"/>
<stop offset="1" stop-color="#8F5E25"/>
</linearGradient>
<linearGradient id="paint4_linear_5_71" x1="-0.834443" y1="164.267" x2="200.512" y2="156.023" gradientUnits="userSpaceOnUse">
<stop stop-color="#8F5E25"/>
<stop offset="0.5" stop-color="#FBF4A1"/>
<stop offset="1" stop-color="#8F5E25"/>
</linearGradient>
<linearGradient id="paint5_linear_5_71" x1="1.00848" y1="171.454" x2="199.508" y2="171.454" gradientUnits="userSpaceOnUse">
<stop stop-color="#8F5E25"/>
<stop offset="0.5" stop-color="#FBF4A1"/>
<stop offset="1" stop-color="#8F5E25"/>
</linearGradient>
</defs>
</svg>
